# xmcd
#
# Track frame offsets: 
#        150
#        16225
#        29675
#        46033
#        58885
#        73035
#        86185
#        105178
#        114930
#        123770
#        136090
#        149223
#        162035
#        176608
#        196390
#        211393
#        224573
#        246703
#        258503
#        272130
#        286105
#        300965
#        315468
#        330320
#
# Disc length: 4570 seconds
#
# Revision: 5
# Processed by: cddbd v1.5.2PL0 Copyright (c) Steve Scherf et al.
# Submitted via: ExactAudioCopyFreeDBPlugin 1.0
#
DISCID=6011d818
DTITLE=Ray Charles - The Collection
DYEAR=1990
DGENRE=Jazz
TTITLE0=Your Cheatin' Heart
TTITLE1=You Are My Sunshine
TTITLE2=Georgia On My Mind
TTITLE3=Unchain My Heart
TTITLE4=One Mint Julep
TTITLE5=Take These Chains From My Heart
TTITLE6=I Can't Stop Loving You
TTITLE7=Busted
TTITLE8=Hit The Road Jack
TTITLE9=Please Say You're Fooling
TTITLE10=Let's Go Get Stoned
TTITLE11=My Heart Cries For You
TTITLE12=Feel So Bad
TTITLE13=That Lucky Old Sun
TTITLE14=Smack Dab In The Middle
TTITLE15=Crying Time
TTITLE16=If It Wasn't For Bad Luck
TTITLE17=In The Heat Of The Night
TTITLE18=Eleanor Rigby
TTITLE19=Don't Change On Me
TTITLE20=Born To Lose
TTITLE21=No One
TTITLE22=Hard Hearted Hannah
TTITLE23=Yesterday
EXTD=YEAR: 1990
EXTT0=
EXTT1=
EXTT2=
EXTT3=
EXTT4=
EXTT5=
EXTT6=
EXTT7=
EXTT8=
EXTT9=
EXTT10=
EXTT11=
EXTT12=
EXTT13=
EXTT14=
EXTT15=
EXTT16=
EXTT17=
EXTT18=
EXTT19=
EXTT20=
EXTT21=
EXTT22=
EXTT23=
PLAYORDER=
